<svg width="45" height="46" viewBox="0 0 45 46" fill="none" xmlns="http://www.w3.org/2000/svg">
<g filter="url(#filter0_d_1_3731)">
<path d="M15.8334 22.5001H29.1667M15.8334 14.1667H22.5" stroke="#737373" stroke-width="2.5" stroke-linecap="round" stroke-linejoin="round"/>
<path d="M12.6647 31.6667C10.4979 31.4536 8.87462 30.8027 7.78599 29.7141C5.83337 27.7616 5.83337 24.6187 5.83337 18.3334V17.5001C5.83337 11.2147 5.83337 8.072 7.78599 6.11936C9.73862 4.16675 12.8813 4.16675 19.1667 4.16675H25.8334C32.1187 4.16675 35.2615 4.16675 37.214 6.11936C39.1667 8.072 39.1667 11.2147 39.1667 17.5001V18.3334C39.1667 24.6187 39.1667 27.7616 37.214 29.7141C35.2615 31.6667 32.1187 31.6667 25.8334 31.6667C24.8992 31.6876 24.1552 31.7586 23.4244 31.9251C21.427 32.3849 19.5775 33.4069 17.7498 34.2982C15.1455 35.5681 13.8434 36.2031 13.0262 35.6086C11.4629 34.4442 12.9909 30.8366 13.3334 29.1667" stroke="#737373" stroke-width="2.5" stroke-linecap="round"/>
</g>
<defs>
<filter id="filter0_d_1_3731" x="-1.5" y="0" width="48" height="48" filterUnits="userSpaceOnUse" color-interpolation-filters="sRGB">
<feFlood flood-opacity="0" result="BackgroundImageFix"/>
<feColorMatrix in="SourceAlpha" type="matrix" values="0 0 0 0 0 0 0 0 0 0 0 0 0 0 0 0 0 0 127 0" result="hardAlpha"/>
<feOffset dy="4"/>
<feGaussianBlur stdDeviation="2"/>
<feComposite in2="hardAlpha" operator="out"/>
<feColorMatrix type="matrix" values="0 0 0 0 0 0 0 0 0 0 0 0 0 0 0 0 0 0 0.25 0"/>
<feBlend mode="normal" in2="BackgroundImageFix" result="effect1_dropShadow_1_3731"/>
<feBlend mode="normal" in="SourceGraphic" in2="effect1_dropShadow_1_3731" result="shape"/>
</filter>
</defs>
</svg>
